<svg width="20" height="20" viewBox="0 0 20 20" fill="none" xmlns="http://www.w3.org/2000/svg">
<path d="M1 10C1 6.25027 1 4.3754 1.95491 3.06107C2.26331 2.6366 2.6366 2.26331 3.06107 1.95491C4.3754 1 6.25027 1 10 1C13.7497 1 15.6246 1 16.9389 1.95491C17.3634 2.26331 17.7367 2.6366 18.0451 3.06107C19 4.3754 19 6.25027 19 10C19 13.7497 19 15.6246 18.0451 16.9389C17.7367 17.3634 17.3634 17.7367 16.9389 18.0451C15.6246 19 13.7497 19 10 19H1V10Z" stroke="#20997B" stroke-width="1.5" stroke-linejoin="round"/>
</svg>
