<svg width="11" height="25" viewBox="0 0 11 25" fill="none" xmlns="http://www.w3.org/2000/svg">
<path fill-rule="evenodd" clip-rule="evenodd" d="M5.5 0C2.46243 0 0 2.28276 0 5.09868V19.9013C0 22.7172 2.46243 25 5.5 25C8.53757 25 11 22.7172 11 19.9013V5.09868C11 2.28276 8.53757 0 5.5 0ZM1.41935 5.09868C1.41935 3.00945 3.24632 1.31579 5.5 1.31579C7.75368 1.31579 9.58064 3.00945 9.58064 5.09868V11.2933C8.00469 11.7908 6.76952 12.0264 5.54493 12.0273C4.31656 12.0283 3.05242 11.7933 1.41935 11.2896V5.09868Z" fill="#FFFFE3"/>
<path fill-rule="evenodd" clip-rule="evenodd" d="M5.33642 2.58403C5.16114 2.25905 4.73485 2.12732 4.38429 2.28981C2.39331 3.21267 2.39466 5.07149 2.3952 5.80458C2.39521 5.81627 2.39521 5.82767 2.39521 5.83878C2.39521 6.20213 2.71295 6.49667 3.10489 6.49667C3.49684 6.49667 3.81457 6.20213 3.81457 5.83878C3.81457 5.06628 3.84822 4.00939 5.01904 3.46669C5.36961 3.3042 5.5117 2.90902 5.33642 2.58403Z" fill="#FFFFE3"/>
</svg>
