<svg width="106" height="107" viewBox="0 0 106 107" fill="none" xmlns="http://www.w3.org/2000/svg">
<g filter="url(#filter0_d_225_698)">
<path d="M3 52.5C3 24.6066 25.3828 2 53 2C80.6172 2 103 24.6066 103 52.5C103 80.3934 80.6172 103 53 103C25.3828 103 3 80.3934 3 52.5ZM53.0586 67.4527C43.8008 67.4527 35.0508 66.0916 27.3164 63.7047C24.9141 62.9551 22.5703 65.0658 23.5469 67.3936C28.4102 79.052 39.7969 87.2188 53.0586 87.2188C66.3203 87.2188 77.6875 79.052 82.5703 67.3936C83.5469 65.0658 81.2031 62.9551 78.8008 63.7047C71.0469 66.0916 62.3164 67.4527 53.0586 67.4527ZM47.2383 47.6867C47.8828 47.4697 48.3125 46.8582 48.3125 46.1875C48.3125 42.6564 47.0039 39.1648 45.0703 36.5609C43.1562 33.9965 40.4023 31.9844 37.375 31.9844C34.3477 31.9844 31.5938 33.9965 29.6797 36.5609C27.7461 39.1648 26.4375 42.6564 26.4375 46.1875C26.4375 46.8582 26.8672 47.4697 27.5117 47.6867C28.1367 47.9037 28.8398 47.6867 29.25 47.1344L29.2891 47.0752C29.3281 47.0357 29.1914 46.9766 29.4258 46.8977C29.3867 46.7398 29.7383 46.5229 29.9727 46.2467C30.4609 45.6746 31.1445 44.9447 31.9648 44.0373C33.6836 42.6762 35.6562 41.4531 37.375 41.4531C39.0938 41.4531 41.0664 42.6762 42.7852 44.0373C43.6055 44.9447 44.2891 45.6746 44.7773 46.2467C45.0117 46.5229 45.1875 46.7398 45.3242 46.8977C45.3828 46.9766 45.4219 47.0357 45.4609 47.0752L45.5 47.1344C45.9102 47.6867 46.6133 47.9037 47.2383 47.6867ZM76.75 47.1344C77.1602 47.6867 77.8633 47.9037 78.4883 47.6867C79.1328 47.4697 79.5625 46.8582 79.5625 46.1875C79.5625 42.6564 78.2539 39.1648 76.3203 36.5609C74.4062 33.9965 71.6523 31.9844 68.625 31.9844C65.5977 31.9844 62.8438 33.9965 60.9297 36.5609C58.9961 39.1648 57.6875 42.6564 57.6875 46.1875C57.6875 46.8582 58.1172 47.4697 58.7617 47.6867C59.3867 47.9037 60.0898 47.6867 60.5 47.1344L60.5391 47.0752C60.5781 47.0357 60.4414 46.9766 60.6758 46.8977C60.6367 46.7398 60.9883 46.5229 61.2227 46.2467C61.7109 45.6746 62.3945 44.9447 63.2148 44.0373C64.9336 42.6762 66.9062 41.4531 68.625 41.4531C70.3438 41.4531 72.3164 42.6762 74.0352 44.0373C74.8555 44.9447 75.5391 45.6746 76.0273 46.2467C76.2617 46.5229 76.4375 46.7398 76.5742 46.8977C76.6328 46.9766 76.6719 47.0357 76.7109 47.0752L76.75 47.1344Z" fill="#177B93"/>
</g>
<defs>
<filter id="filter0_d_225_698" x="0" y="0" width="106" height="107" filterUnits="userSpaceOnUse" color-interpolation-filters="sRGB">
<feFlood flood-opacity="0" result="BackgroundImageFix"/>
<feColorMatrix in="SourceAlpha" type="matrix" values="0 0 0 0 0 0 0 0 0 0 0 0 0 0 0 0 0 0 127 0" result="hardAlpha"/>
<feOffset dy="1"/>
<feGaussianBlur stdDeviation="1.5"/>
<feComposite in2="hardAlpha" operator="out"/>
<feColorMatrix type="matrix" values="0 0 0 0 0 0 0 0 0 0 0 0 0 0 0 0 0 0 0.25 0"/>
<feBlend mode="normal" in2="BackgroundImageFix" result="effect1_dropShadow_225_698"/>
<feBlend mode="normal" in="SourceGraphic" in2="effect1_dropShadow_225_698" result="shape"/>
</filter>
</defs>
</svg>
