<svg width="106" height="107" viewBox="0 0 106 107" fill="none" xmlns="http://www.w3.org/2000/svg">
<g filter="url(#filter0_d_227_706)">
<path d="M53 2C80.6172 2 103 24.6066 103 52.5C103 80.3934 80.6172 103 53 103C25.3828 103 3 80.3934 3 52.5C3 24.6066 25.3828 2 53 2ZM53 71.4375C59.8164 71.4375 66.125 74.5543 71.0273 79.9002C72.1992 81.1824 74.1719 81.2416 75.4414 80.058C76.7109 78.8744 76.7695 76.882 75.5977 75.5998C69.7187 69.169 61.7891 65.125 53 65.125C51.2812 65.125 49.875 66.5453 49.875 68.2813C49.875 70.0172 51.2812 71.4375 53 71.4375ZM43.625 74.791C43.625 70.8457 38.0781 62.8762 35.5 59.4635C34.875 58.5955 33.625 58.5955 33 59.4635C30.4609 62.8762 24.875 70.8457 24.875 74.791C24.875 79.9199 29.0742 84.0625 34.25 84.0625C39.4258 84.0625 43.625 79.9199 43.625 74.791ZM62.2969 43.0313C62.2969 46.5229 64.9336 49.3438 68.5469 49.3438C72.0039 49.3438 74.7969 46.5229 74.7969 43.0313C74.7969 39.5396 72.0039 36.7188 68.5469 36.7188C64.9336 36.7188 62.2969 39.5396 62.2969 43.0313ZM43.5469 43.0313C43.5469 39.5396 40.7539 36.7188 37.2969 36.7188C33.6836 36.7188 31.0469 39.5396 31.0469 43.0313C31.0469 46.5229 33.6836 49.3438 37.2969 49.3438C40.7539 49.3438 43.5469 46.5229 43.5469 43.0313Z" fill="#177B93"/>
</g>
<defs>
<filter id="filter0_d_227_706" x="0" y="0" width="106" height="107" filterUnits="userSpaceOnUse" color-interpolation-filters="sRGB">
<feFlood flood-opacity="0" result="BackgroundImageFix"/>
<feColorMatrix in="SourceAlpha" type="matrix" values="0 0 0 0 0 0 0 0 0 0 0 0 0 0 0 0 0 0 127 0" result="hardAlpha"/>
<feOffset dy="1"/>
<feGaussianBlur stdDeviation="1.5"/>
<feComposite in2="hardAlpha" operator="out"/>
<feColorMatrix type="matrix" values="0 0 0 0 0 0 0 0 0 0 0 0 0 0 0 0 0 0 0.25 0"/>
<feBlend mode="normal" in2="BackgroundImageFix" result="effect1_dropShadow_227_706"/>
<feBlend mode="normal" in="SourceGraphic" in2="effect1_dropShadow_227_706" result="shape"/>
</filter>
</defs>
</svg>
