<svg width="66" height="65" viewBox="0 0 66 65" fill="none" xmlns="http://www.w3.org/2000/svg">
<path fill-rule="evenodd" clip-rule="evenodd" d="M0.930485 32.6749C0.930485 13.9896 14.4745 0.453247 33.1705 0.453247C51.8664 0.453247 65.4105 13.9896 65.4105 32.6749C65.4105 51.3602 51.8664 64.8966 33.1705 64.8966C14.4745 64.8966 0.930485 51.3602 0.930485 32.6749ZM27.1255 22.6056C27.1255 20.729 27.1255 19.7906 27.4322 19.0505C27.8413 18.0636 28.6258 17.2795 29.6133 16.8707C30.3539 16.5641 31.2927 16.5641 33.1705 16.5641C35.0482 16.5641 35.9871 16.5641 36.7277 16.8707C37.7152 17.2795 38.4997 18.0636 38.9087 19.0505C39.2155 19.7906 39.2155 20.729 39.2155 22.6056V26.44C39.2155 26.5312 39.2155 26.5767 39.2438 26.605C39.2721 26.6334 39.3177 26.6334 39.4089 26.6334H43.2455C45.1232 26.6334 46.0621 26.6334 46.8027 26.9399C47.7902 27.3487 48.5747 28.1328 48.9837 29.1197C49.2905 29.8599 49.2905 30.7982 49.2905 32.6749C49.2905 34.5516 49.2905 35.4899 48.9837 36.2301C48.5747 37.217 47.7902 38.0011 46.8027 38.4099C46.0621 38.7165 45.1232 38.7165 43.2455 38.7165H39.4089C39.3177 38.7165 39.2721 38.7165 39.2438 38.7448C39.2155 38.7731 39.2155 38.8187 39.2155 38.9098V42.7442C39.2155 44.6209 39.2155 45.5592 38.9087 46.2994C38.4997 47.2863 37.7152 48.0704 36.7277 48.4792C35.9871 48.7858 35.0482 48.7858 33.1705 48.7858C31.2927 48.7858 30.3539 48.7858 29.6133 48.4792C28.6258 48.0704 27.8413 47.2863 27.4322 46.2994C27.1255 45.5592 27.1255 44.6209 27.1255 42.7442V38.9098C27.1255 38.8187 27.1255 38.7731 27.0972 38.7448C27.0688 38.7165 27.0232 38.7165 26.932 38.7165H23.0955C21.2177 38.7165 20.2789 38.7165 19.5383 38.4099C18.5508 38.0011 17.7663 37.217 17.3573 36.2301C17.0505 35.4899 17.0505 34.5516 17.0505 32.6749C17.0505 30.7982 17.0505 29.8599 17.3573 29.1197C17.7663 28.1328 18.5508 27.3487 19.5383 26.9399C20.2789 26.6334 21.2177 26.6334 23.0955 26.6334H26.932C27.0232 26.6334 27.0688 26.6334 27.0972 26.605C27.1255 26.5767 27.1255 26.5312 27.1255 26.44V22.6056Z" fill="#FBFBE9"/>
</svg>
