<svg width="125" height="126" viewBox="0 0 125 126" fill="none" xmlns="http://www.w3.org/2000/svg">
<path fill-rule="evenodd" clip-rule="evenodd" d="M124.88 62.7241C124.88 97.1671 96.9427 125.089 62.4801 125.089C28.0175 125.089 0.0800781 97.1671 0.0800781 62.7241C0.0800781 28.2812 28.0175 0.359604 62.4801 0.359604C96.9427 0.359604 124.88 28.2812 124.88 62.7241ZM78.0801 39.3374C78.0801 47.9482 71.0957 54.9286 62.4801 54.9286C53.8644 54.9286 46.8801 47.9482 46.8801 39.3374C46.8801 30.7267 53.8644 23.7463 62.4801 23.7463C71.0957 23.7463 78.0801 30.7267 78.0801 39.3374ZM62.4795 70.5197C46.7427 70.5197 33.1828 79.835 27.0192 93.2494C35.6015 103.199 48.3048 109.498 62.4799 109.498C76.6548 109.498 89.3579 103.199 97.9401 93.25C91.7766 79.8353 78.2166 70.5197 62.4795 70.5197Z" fill="#186071"/>
</svg>
