<svg width="51" height="48" viewBox="0 0 51 48" fill="none" xmlns="http://www.w3.org/2000/svg">
<g filter="url(#filter0_d_106_567)">
<path d="M9.07995 41.2118H7.6933C6.95777 41.2118 6.25237 40.9224 5.73228 40.4072C5.21218 39.8921 4.92 39.1933 4.92 38.4648V9.62119C4.92 8.89263 5.21218 8.19392 5.73228 7.67876C6.25237 7.16359 6.95777 6.87418 7.6933 6.87418H9.07995C9.81547 6.87418 10.5209 7.16359 11.041 7.67876C11.5611 8.19392 11.8532 8.89263 11.8532 9.62119V38.4648C11.8532 39.1933 11.5611 39.8921 11.041 40.4072C10.5209 40.9224 9.81547 41.2118 9.07995 41.2118Z" fill="#20997B"/>
<path d="M24.3343 15.1154C24.3343 14.3868 24.0421 13.6879 23.5219 13.1727C23.0018 12.6575 22.2963 12.368 21.5606 12.368H16.0133C15.2776 12.368 14.5721 12.6575 14.052 13.1727C13.5318 13.6879 13.2396 14.3868 13.2396 15.1154V17.5194C13.2396 17.6105 13.2761 17.6978 13.3411 17.7622C13.4061 17.8266 13.4943 17.8628 13.5863 17.8628H23.9876C24.0796 17.8628 24.1678 17.8266 24.2328 17.7622C24.2978 17.6978 24.3343 17.6105 24.3343 17.5194V15.1154Z" fill="#20997B"/>
<path d="M13.2396 38.4643C13.2396 39.1929 13.5318 39.8917 14.052 40.407C14.5721 40.9222 15.2776 41.2117 16.0133 41.2117H21.5606C22.2963 41.2117 23.0018 40.9222 23.5219 40.407C24.0421 39.8917 24.3343 39.1929 24.3343 38.4643V35.8886C24.3343 35.843 24.3161 35.7994 24.2836 35.7672C24.2511 35.7349 24.207 35.7169 24.161 35.7169H13.4129C13.3669 35.7169 13.3228 35.7349 13.2903 35.7672C13.2578 35.7994 13.2396 35.843 13.2396 35.8886V38.4643Z" fill="#20997B"/>
<path d="M24.161 20.6094H13.4129C13.3172 20.6094 13.2396 20.6863 13.2396 20.7811V32.801C13.2396 32.8958 13.3172 32.9727 13.4129 32.9727H24.161C24.2567 32.9727 24.3343 32.8958 24.3343 32.801V20.7811C24.3343 20.6863 24.2567 20.6094 24.161 20.6094Z" fill="#20997B"/>
<path d="M31.2658 41.2119H28.4925C27.757 41.2119 27.0516 40.9224 26.5315 40.4073C26.0114 39.8921 25.7192 39.1934 25.7192 38.4648V5.50073C25.7192 4.77218 26.0114 4.07347 26.5315 3.5583C27.0516 3.04314 27.757 2.75372 28.4925 2.75372H31.2658C32.0014 2.75372 32.7068 3.04314 33.2269 3.5583C33.747 4.07347 34.0391 4.77218 34.0391 5.50073V38.4648C34.0391 39.1934 33.747 39.8921 33.2269 40.4073C32.7068 40.9224 32.0014 41.2119 31.2658 41.2119Z" fill="#20997B"/>
<path d="M46.5101 38.2453L43.7169 9.05833C43.5886 7.71487 42.2487 6.74054 40.7243 6.88562L37.964 7.14315C36.4395 7.28651 35.3077 8.49176 35.436 9.83522L38.2292 39.0222C38.3574 40.3657 39.6973 41.34 41.2217 41.1949L43.982 40.9374C45.5065 40.794 46.6384 39.5888 46.5101 38.2453Z" fill="#20997B"/>
</g>
<defs>
<filter id="filter0_d_106_567" x="0.919998" y="0.753723" width="49.6" height="46.4581" filterUnits="userSpaceOnUse" color-interpolation-filters="sRGB">
<feFlood flood-opacity="0" result="BackgroundImageFix"/>
<feColorMatrix in="SourceAlpha" type="matrix" values="0 0 0 0 0 0 0 0 0 0 0 0 0 0 0 0 0 0 127 0" result="hardAlpha"/>
<feOffset dy="2"/>
<feGaussianBlur stdDeviation="2"/>
<feComposite in2="hardAlpha" operator="out"/>
<feColorMatrix type="matrix" values="0 0 0 0 0 0 0 0 0 0 0 0 0 0 0 0 0 0 0.15 0"/>
<feBlend mode="normal" in2="BackgroundImageFix" result="effect1_dropShadow_106_567"/>
<feBlend mode="normal" in="SourceGraphic" in2="effect1_dropShadow_106_567" result="shape"/>
</filter>
</defs>
</svg>
