<svg id="Capa_1" data-name="Capa 1" xmlns="http://www.w3.org/2000/svg" viewBox="0 0 461.26 154.95"><defs><style>.cls-1,.cls-2,.cls-3,.cls-6{fill:#fda5b8;}.cls-1{stroke:#fda5b8;}.cls-1,.cls-10,.cls-11,.cls-12,.cls-13,.cls-14,.cls-15,.cls-2,.cls-3,.cls-4,.cls-5,.cls-6,.cls-7,.cls-8,.cls-9{stroke-miterlimit:10;}.cls-1,.cls-2,.cls-4,.cls-7,.cls-9{stroke-width:7px;}.cls-2,.cls-7{stroke:#000;}.cls-11,.cls-12,.cls-13,.cls-3{stroke:#e27f86;}.cls-11,.cls-12,.cls-13,.cls-15,.cls-3{stroke-linecap:round;}.cls-10,.cls-11,.cls-3,.cls-5,.cls-6{stroke-width:4px;}.cls-4,.cls-5{fill:#ff5440;}.cls-4{stroke:#ff5440;}.cls-5,.cls-6{stroke:#338f7c;}.cls-11,.cls-12,.cls-13,.cls-15,.cls-7,.cls-8{fill:none;}.cls-8{stroke:#fff;}.cls-9{fill:#26b899;stroke:#26b899;}.cls-10{fill:#80cbb7;stroke:#149f84;}.cls-12{stroke-width:2px;}.cls-13,.cls-15{stroke-width:3px;}.cls-14{fill:#ffbeac;}.cls-14,.cls-15{stroke:#ffbeac;}.cls-16{opacity:0.8;font-family:Quicksand-Medium, Quicksand;font-weight:500;}.cls-16,.cls-17{font-size:70px;letter-spacing:0.06em;}.cls-17{opacity:0.72;font-family:Quicksand-Light, Quicksand;font-weight:300;}</style></defs><title>Logo All Colored Text Black</title><path class="cls-1" d="M128.13,200.37a30.32,30.32,0,0,1,58.5,1.59c1.14.18,11.74,2,17,11.84,5.94,11.14-.54,22-.87,22.53.81.76,10.27,9.88,8,23.28-2.33,13.89-15.08,19.52-15.95,19.88a24.36,24.36,0,0,1-8.48,19.72c-4.73,4-13.1,4.64-18.65.66,0,.09,0,.21,0,.35-.9,8.63-3.52,13.73-10.57,19.26-7.76,6.09-22.17,4.87-28.59,1.57Z" transform="translate(-29.56 -172.34)"/><path class="cls-2" d="M185.27,266.77" transform="translate(-29.56 -172.34)"/><path class="cls-3" d="M183.9,203a57.81,57.81,0,0,1-1,10.79c-.95,5.08-2.84,10.15-7.55,11.2h-.11c-2.82,0-4.51-1-6.59-3.06-2.6-2.6-3.06-6.39-3.8-8.15" transform="translate(-29.56 -172.34)"/><path class="cls-4" d="M121.86,200h0V320.31a14.62,14.62,0,0,1,0,2c-1,1.55-46.49-17.47-72.4-54.26a105,105,0,0,1-9.66-17.76c-3.59-8.28-6.15-14.2-6.63-22.61-.56-10,1.07-17.65,2.38-21,1.76-4.51,6.17-13.9,14.71-21,11.2-9.32,24.27-9.74,28.55-9.82,0,0,17.74-.34,31.33,10.82a67.48,67.48,0,0,1,11.7,13.27Z" transform="translate(-29.56 -172.34)"/><path class="cls-5" d="M78.11,255.74h0A132.17,132.17,0,0,0,62.9,251a117.58,117.58,0,0,0-14.15-2.49c-7.93-1-11.73-1.33-12.85-.51-3.16,2.32,19.53,33.83,22,33,4.13-1.39,11.09-.7,20.21-.22Z" transform="translate(-29.56 -172.34)"/><path class="cls-6" d="M172.37,256.35c5.12-1.3,8.07-2.73,13.53-3.94.24,0,1.1-.3,2.48-.65a123.43,123.43,0,0,1,12.52-2.31c9.1-1.43,10-1.89,11-1,1.47,1.29,1.31,3.82,1,8.87a31.85,31.85,0,0,1-.68,5.27c-.07.31-.29,1.24-.68,2.44A29.26,29.26,0,0,1,208.9,271a18.36,18.36,0,0,1-5,6c-3.24,2.23-6.88,2.05-9,2a133.39,133.39,0,0,0-22.53,1.68Z" transform="translate(-29.56 -172.34)"/><path class="cls-7" d="M121.63,321.28" transform="translate(-29.56 -172.34)"/><path class="cls-8" d="M37.44,242.49" transform="translate(-29.56 -172.34)"/><path class="cls-9" d="M125.6,240.78c-6,1.24-10.74,2.52-13.79,3.41-10.42,3-14.77,5.32-24.87,8.15-5.61,1.58-10.2,2.54-12.94,3.06-.31,4.64-.47,17,8.06,27.88,5.13,6.52,11.2,9.72,15.55,12a65.41,65.41,0,0,0,28.13,7c5.51.15,15.76.31,27.14-5,4.13-1.92,10.89-5.07,16.32-12,9.25-11.79,7.83-25.86,7.28-29.88-3.45-.67-7.86-1.64-12.94-3.06-9.93-2.78-14.29-5-24.87-8.15C135.2,243.16,130.79,242,125.6,240.78Z" transform="translate(-29.56 -172.34)"/><path class="cls-10" d="M156.9,264a67.19,67.19,0,0,1-62.77,0" transform="translate(-29.56 -172.34)"/><path class="cls-10" d="M150.65,280.58a58.79,58.79,0,0,1-50,0" transform="translate(-29.56 -172.34)"/><path class="cls-11" d="M131.9,203c5.63,2.16,7.56,5.13,8.24,7.55,1,3.72-.55,7.38,1.39,10.53a6.31,6.31,0,0,0,3.6,2.7" transform="translate(-29.56 -172.34)"/><path class="cls-12" d="M175.13,285.78c.28,2.25,1,5.11,3,6s4.13-1,6,0c1.1.57,2.28,2.19,2.22,7.12" transform="translate(-29.56 -172.34)"/><path class="cls-13" d="M133.34,318.28a11.76,11.76,0,0,1,7.13-7c4.37-1.48,8.81-.14,10.66.52" transform="translate(-29.56 -172.34)"/><path class="cls-13" d="M205,229.06c-4.62,8.35-8.55,10.29-11.39,10.38-3.12.09-5.95-2-11-1.16a16.35,16.35,0,0,0-4.5,1.5" transform="translate(-29.56 -172.34)"/><ellipse class="cls-14" cx="46.16" cy="221.51" rx="3.34" ry="1.84" transform="translate(-209.37 60.72) rotate(-81.15)"/><path class="cls-13" d="M175.09,235a13.43,13.43,0,0,1,2.54,6.28,8.77,8.77,0,0,1-.15,4.13" transform="translate(-29.56 -172.34)"/><path class="cls-15" d="M47.1,214.16a40.56,40.56,0,0,1,6.39-15.69A25.12,25.12,0,0,1,68.1,188.16" transform="translate(-29.56 -172.34)"/><path class="cls-13" d="M155.81,222.35c-2.7-.37-7.38-.62-10.1,1.91s-2.22,6.32-1.71,8.62" transform="translate(-29.56 -172.34)"/><path class="cls-13" d="M207.21,261.59a12.44,12.44,0,0,0-12.52,4.48" transform="translate(-29.56 -172.34)"/><text class="cls-16" transform="translate(185.81 119.03)">MY</text><text class="cls-17" transform="translate(291.16 119.23)">SELF</text></svg>