<svg width="28" height="24" viewBox="0 0 28 24" fill="none" xmlns="http://www.w3.org/2000/svg">
<path d="M7.36163 12C7.36163 11.7107 7.47243 11.4332 7.66965 11.2286C7.86688 11.024 8.13437 10.9091 8.41329 10.9091H17.8782V3.81818C17.8782 1.63636 15.6573 0 13.6716 0H3.68081C2.70492 0.00108288 1.7693 0.403702 1.07924 1.11952C0.389178 1.83533 0.00104392 2.80587 0 3.81818V20.1818C0.00104392 21.1941 0.389178 22.1647 1.07924 22.8805C1.7693 23.5963 2.70492 23.9989 3.68081 24H14.1974C15.1733 23.9989 16.1089 23.5963 16.799 22.8805C17.4891 22.1647 17.8772 21.1941 17.8782 20.1818V13.0909H8.41329C8.13437 13.0909 7.86688 12.976 7.66965 12.7714C7.47243 12.5668 7.36163 12.2893 7.36163 12Z" fill="#1F4650"/>
<path d="M27.6923 11.2091L22.434 5.75458C22.2352 5.55863 21.9704 5.45101 21.6962 5.45465C21.422 5.45829 21.16 5.57291 20.966 5.77408C20.7721 5.97524 20.6616 6.24704 20.6581 6.5315C20.6546 6.81597 20.7583 7.09061 20.9472 7.29686L24.4098 10.8894H18.5356V13.0712H24.4098L20.9472 16.6637C20.8455 16.764 20.7641 16.8844 20.7079 17.0178C20.6517 17.1512 20.6218 17.295 20.62 17.4406C20.6182 17.5862 20.6445 17.7307 20.6974 17.8656C20.7503 18.0005 20.8287 18.123 20.928 18.2259C21.0272 18.3289 21.1453 18.4102 21.2754 18.4651C21.4054 18.5199 21.5447 18.5472 21.6851 18.5454C21.8254 18.5435 21.964 18.5125 22.0926 18.4542C22.2213 18.3959 22.3373 18.3115 22.434 18.2059L27.6923 12.7514C27.8894 12.5468 28.0001 12.2695 28.0001 11.9803C28.0001 11.6911 27.8894 11.4137 27.6923 11.2091V11.2091Z" fill="#1F4650"/>
</svg>
