<svg id="Capa_1" data-name="Capa 1" xmlns="http://www.w3.org/2000/svg" viewBox="0 0 427.07 153"><defs><style>.cls-1,.cls-2,.cls-3,.cls-4,.cls-5,.cls-6,.cls-7,.cls-8,.cls-9{fill:none;}.cls-1{stroke:#000;}.cls-1,.cls-10,.cls-2,.cls-3,.cls-4,.cls-5,.cls-6,.cls-7,.cls-8,.cls-9{stroke-miterlimit:10;}.cls-1,.cls-6{stroke-width:7px;}.cls-10,.cls-2,.cls-3,.cls-4,.cls-5,.cls-6,.cls-7,.cls-8,.cls-9{stroke:#fff;}.cls-2,.cls-5,.cls-6,.cls-8{stroke-linecap:round;}.cls-2{stroke-width:2px;}.cls-3,.cls-8{stroke-width:3px;}.cls-4,.cls-5{stroke-width:5px;}.cls-9{stroke-width:4px;}.cls-10,.cls-11,.cls-12{fill:#fff;}.cls-11,.cls-12{font-size:60px;letter-spacing:0.06em;}.cls-11{font-family:Quicksand-Medium, Quicksand;font-weight:500;}.cls-12{font-family:Quicksand-Light, Quicksand;font-weight:300;}</style></defs><title>Logo White Text</title><path class="cls-1" d="M136.16,321.31" transform="translate(-46.24 -173.31)"/><path class="cls-2" d="M189.66,285.81c.27,2.25,1,5.1,3,6s4.13-1,6,0c1.1.57,2.28,2.19,2.21,7.12" transform="translate(-46.24 -173.31)"/><path class="cls-3" d="M93.64,254.89c.53.15-9.64-2.59-15.12-3.94-5.07-1.25-10-2.37-14.88-3.4-1-.13-9-2-10.93-.69-1.66,1.12,1.43,5.92,6.64,14.5,1.68,2.77,3.16,5,4.81,7.29,3.33,4.59,5,6.88,7,8.12,2.25,1.39,3.87,1.4,12,2,2.73.21,6.87.54,12,1A66.42,66.42,0,0,1,92.5,269.5c-1.28-7.33-.19-8.32-1-11a2.87,2.87,0,0,1,0-2A3.36,3.36,0,0,1,93.64,254.89Z" transform="translate(-46.24 -173.31)"/><path class="cls-3" d="M186.66,255.05q7.58-2,15.66-3.84c1.31-.3,6-1.37,15.43-3.31,2.27-.47,4.65-.93,6.41.41,1.55,1.19,1.8,3.16,2.23,6.59,0,0,.63,5.17-1.08,9-.83,1.87-1.14,1.61-4.32,6-3.89,5.37-4.93,6.31-7.23,7.5a11.48,11.48,0,0,1-5.5,1.5c-4.62.07-11.94.42-21.6.9a41.35,41.35,0,0,0,1.5-18.45A40.67,40.67,0,0,0,186.66,255.05Z" transform="translate(-46.24 -173.31)"/><path class="cls-4" d="M138.16,302.36v18a14.46,14.46,0,0,1,0,2c-1,1.55-47.73-17.47-74.32-54.26a78.67,78.67,0,0,1-9.91-17.75,75.12,75.12,0,0,1-4.77-35A42.63,42.63,0,0,1,51,205.9c3.61-11.17,11.45-17.51,13.88-19.73,2.61-2.38,12.81-9.54,29.13-10.3,26.5-1.23,44.2,18.19,44.2,24.11h0s0,11.75,0,40.48" transform="translate(-46.24 -173.31)"/><path class="cls-5" d="M142.78,239.88l-.12-39.48a30.32,30.32,0,0,1,58.5,1.59c1.13.17,11.73,2,17,11.84,5.93,11.14-.55,22-.88,22.53.82.76,10.28,9.88,8,23.28-2.33,13.89-15.08,19.51-15.94,19.88a24.41,24.41,0,0,1-8.48,19.72c-4.73,4-13.11,4.63-18.66.66,0,.09,0,.2,0,.35-.91,8.63-3.53,13.72-10.57,19.25-7.76,6.09-22.17,4.88-28.6,1.58L143,304.43" transform="translate(-46.24 -173.31)"/><path class="cls-6" d="M199.79,266.79" transform="translate(-46.24 -173.31)"/><path class="cls-5" d="M198.89,195.81a87.35,87.35,0,0,1-1.17,14.72c-1.16,6.95-3.48,13.89-9.29,15.28-3.48,0-5.57-1.29-8.13-4.17-3.17-3.55-3.74-8.71-4.64-11.11" transform="translate(-46.24 -173.31)"/><path class="cls-7" d="M52,242.52" transform="translate(-46.24 -173.31)"/><path class="cls-4" d="M139.89,240.81c-5.69,1.23-10.21,2.52-13.11,3.41-9.91,3-14,5.31-23.65,8.15-5.33,1.58-9.69,2.53-12.29,3.06-.3,4.64-.45,17,7.66,27.88,4.87,6.52,10.65,9.72,14.78,12a59.82,59.82,0,0,0,26.74,7,52.68,52.68,0,0,0,25.8-5c3.93-1.92,10.36-5.07,15.52-12,8.79-11.79,7.44-25.87,6.92-29.88-3.28-.67-7.47-1.64-12.3-3.06-9.44-2.78-13.58-5-23.64-8.15C149,243.19,144.82,242,139.89,240.81Z" transform="translate(-46.24 -173.31)"/><path class="cls-8" d="M170.66,269.81a114.5,114.5,0,0,1-60,0" transform="translate(-46.24 -173.31)"/><path class="cls-8" d="M165.17,283.61a80.13,80.13,0,0,1-50,0" transform="translate(-46.24 -173.31)"/><path class="cls-9" d="M141.26,200.76c7.82,2.39,10.51,5.68,11.45,8.37,1.45,4.13-.76,8.18,1.95,11.68a8.89,8.89,0,0,0,5,3" transform="translate(-46.24 -173.31)"/><path class="cls-8" d="M222.73,261.61a12.72,12.72,0,0,0-7.57.7,12.48,12.48,0,0,0-4.94,3.79" transform="translate(-46.24 -173.31)"/><path class="cls-8" d="M144.86,318.31a11.79,11.79,0,0,1,7.13-7c4.37-1.48,8.82-.14,10.67.52" transform="translate(-46.24 -173.31)"/><path class="cls-3" d="M219.54,229.09c-4.61,8.35-8.54,10.29-11.38,10.37-3.13.1-5.95-2-11-1.15a15.91,15.91,0,0,0-4.5,1.5" transform="translate(-46.24 -173.31)"/><path class="cls-8" d="M164.79,219.31a15.51,15.51,0,0,0-8.91,9.86" transform="translate(-46.24 -173.31)"/><path class="cls-8" d="M190.61,235a13,13,0,0,1,2.4,10.41" transform="translate(-46.24 -173.31)"/><ellipse class="cls-10" cx="61.43" cy="213.2" rx="3.34" ry="1.84" transform="translate(-205.45 63.36) rotate(-80)"/><path class="cls-8" d="M63.73,207.05A40.67,40.67,0,0,1,75.78,194a41.17,41.17,0,0,1,20.88-7.15" transform="translate(-46.24 -173.31)"/><text class="cls-11" transform="translate(190.6 109.76)">MY</text><text class="cls-12" transform="translate(281.09 109.95)">SELF</text></svg>