<svg id="Capa_1" data-name="Capa 1" xmlns="http://www.w3.org/2000/svg" viewBox="0 0 185.55 154.95"><defs><style>.cls-1,.cls-2,.cls-3,.cls-6{fill:#fda5b8;}.cls-1{stroke:#fda5b8;}.cls-1,.cls-10,.cls-11,.cls-12,.cls-13,.cls-14,.cls-15,.cls-2,.cls-3,.cls-4,.cls-5,.cls-6,.cls-7,.cls-8,.cls-9{stroke-miterlimit:10;}.cls-1,.cls-2,.cls-4,.cls-7,.cls-9{stroke-width:7px;}.cls-2,.cls-7{stroke:#000;}.cls-11,.cls-12,.cls-13,.cls-3{stroke:#e27f86;}.cls-11,.cls-12,.cls-13,.cls-15,.cls-3{stroke-linecap:round;}.cls-10,.cls-11,.cls-3,.cls-5,.cls-6{stroke-width:4px;}.cls-4,.cls-5{fill:#ff5440;}.cls-4{stroke:#ff5440;}.cls-5,.cls-6{stroke:#338f7c;}.cls-11,.cls-12,.cls-13,.cls-15,.cls-7,.cls-8{fill:none;}.cls-8{stroke:#fff;}.cls-9{fill:#26b899;stroke:#26b899;}.cls-10{fill:#80cbb7;stroke:#149f84;}.cls-12{stroke-width:2px;}.cls-13,.cls-15{stroke-width:3px;}.cls-14{fill:#ffbeac;}.cls-14,.cls-15{stroke:#ffbeac;}</style></defs><title>Logo Expo All Colored</title><path class="cls-1" d="M256.24,200.37a30.32,30.32,0,0,1,58.5,1.59c1.13.18,11.73,2,17,11.84,5.93,11.14-.55,22-.88,22.53.82.76,10.28,9.88,8,23.28-2.33,13.89-15.08,19.52-15.94,19.88a24.42,24.42,0,0,1-8.48,19.72c-4.73,4-13.11,4.64-18.66.66,0,.09,0,.21,0,.35-.91,8.63-3.53,13.73-10.57,19.26-7.76,6.09-22.17,4.87-28.6,1.57Z" transform="translate(-157.66 -172.34)"/><path class="cls-2" d="M313.37,266.77" transform="translate(-157.66 -172.34)"/><path class="cls-3" d="M312,203a57.81,57.81,0,0,1-.95,10.79c-.95,5.08-2.84,10.15-7.55,11.2h-.11c-2.81,0-4.51-1-6.59-3.06-2.59-2.6-3.06-6.39-3.8-8.15" transform="translate(-157.66 -172.34)"/><path class="cls-4" d="M250,200h0V320.31a13,13,0,0,1,0,2c-1,1.55-46.49-17.47-72.4-54.26a104.53,104.53,0,0,1-9.65-17.76c-3.59-8.28-6.16-14.2-6.63-22.61-.57-10,1.07-17.65,2.37-21,1.76-4.51,6.17-13.9,14.71-21,11.2-9.32,24.28-9.74,28.55-9.82,0,0,17.75-.34,31.33,10.82A67.71,67.71,0,0,1,250,199.93Z" transform="translate(-157.66 -172.34)"/><path class="cls-5" d="M206.22,255.74h0A132,132,0,0,0,191,251a117.24,117.24,0,0,0-14.15-2.49c-7.93-1-11.73-1.33-12.85-.51-3.16,2.32,19.53,33.83,22,33,4.13-1.39,11.09-.7,20.22-.22Z" transform="translate(-157.66 -172.34)"/><path class="cls-6" d="M300.47,256.35c5.13-1.3,8.07-2.73,13.53-3.94.24,0,1.1-.3,2.48-.65A123.94,123.94,0,0,1,329,249.45c9.11-1.43,10-1.89,11-1,1.48,1.29,1.32,3.82,1,8.87a32.83,32.83,0,0,1-.67,5.27c-.07.31-.29,1.24-.68,2.44A29.49,29.49,0,0,1,337,271a18.24,18.24,0,0,1-5,6c-3.24,2.23-6.88,2.05-9,2a133.45,133.45,0,0,0-22.53,1.68Z" transform="translate(-157.66 -172.34)"/><path class="cls-7" d="M249.74,321.28" transform="translate(-157.66 -172.34)"/><path class="cls-8" d="M165.54,242.49" transform="translate(-157.66 -172.34)"/><path class="cls-9" d="M253.7,240.78c-6,1.24-10.73,2.52-13.79,3.41-10.42,3-14.77,5.32-24.87,8.15-5.61,1.58-10.2,2.54-12.94,3.06-.31,4.64-.47,17,8.07,27.88,5.12,6.52,11.2,9.72,15.54,12a65.41,65.41,0,0,0,28.13,7c5.51.15,15.76.31,27.14-5,4.13-1.92,10.89-5.07,16.32-12,9.25-11.79,7.83-25.86,7.28-29.88-3.44-.67-7.86-1.64-12.93-3.06-9.93-2.78-14.29-5-24.88-8.15C263.3,243.16,258.89,242,253.7,240.78Z" transform="translate(-157.66 -172.34)"/><path class="cls-10" d="M285,264a67.17,67.17,0,0,1-62.76,0" transform="translate(-157.66 -172.34)"/><path class="cls-10" d="M278.75,280.58a58.79,58.79,0,0,1-50,0" transform="translate(-157.66 -172.34)"/><path class="cls-11" d="M260,203c5.63,2.16,7.56,5.13,8.24,7.55,1,3.72-.55,7.38,1.4,10.53a6.25,6.25,0,0,0,3.6,2.7" transform="translate(-157.66 -172.34)"/><path class="cls-12" d="M303.24,285.78c.27,2.25,1,5.11,3,6s4.13-1,6,0c1.1.57,2.28,2.19,2.21,7.12" transform="translate(-157.66 -172.34)"/><path class="cls-13" d="M261.44,318.28a11.79,11.79,0,0,1,7.13-7c4.37-1.48,8.82-.14,10.67.52" transform="translate(-157.66 -172.34)"/><path class="cls-13" d="M333.12,229.06c-4.61,8.35-8.54,10.29-11.38,10.38-3.13.09-5.95-2-11-1.16a16.23,16.23,0,0,0-4.5,1.5" transform="translate(-157.66 -172.34)"/><ellipse class="cls-14" cx="174.26" cy="221.51" rx="3.34" ry="1.84" transform="translate(-229.07 187.3) rotate(-81.15)"/><path class="cls-13" d="M303.19,235a13.31,13.31,0,0,1,2.55,6.28,8.92,8.92,0,0,1-.15,4.13" transform="translate(-157.66 -172.34)"/><path class="cls-15" d="M175.2,214.16a40.88,40.88,0,0,1,6.39-15.69,25.15,25.15,0,0,1,14.61-10.31" transform="translate(-157.66 -172.34)"/><path class="cls-13" d="M283.91,222.35c-2.7-.37-7.37-.62-10.1,1.91s-2.21,6.32-1.71,8.62" transform="translate(-157.66 -172.34)"/><path class="cls-13" d="M335.31,261.59a12.44,12.44,0,0,0-12.51,4.48" transform="translate(-157.66 -172.34)"/></svg>