<svg width="207" height="174" viewBox="0 0 207 174" fill="none" xmlns="http://www.w3.org/2000/svg">
<path d="M162.158 127.375C162.461 129.899 163.281 133.095 165.526 134.105C167.771 135.114 170.162 132.983 172.261 134.105C173.496 134.744 174.821 136.561 174.742 142.091" stroke="white" stroke-width="6" stroke-miterlimit="10" stroke-linecap="round"/>
<path d="M54.3691 92.6941C54.9641 92.8624 43.5476 89.7891 37.3959 88.2749C31.7045 86.8729 26.1702 85.6166 20.6921 84.4613C19.5695 84.3155 10.589 82.2181 8.42247 83.6874C6.559 84.9436 10.0277 90.3275 15.8763 99.9511C17.7622 103.058 19.4236 105.559 21.2759 108.128C25.014 113.276 26.8887 115.845 29.1338 117.235C31.6596 118.795 33.4782 118.806 42.6046 119.479C45.6692 119.714 50.3167 120.084 56.0754 120.6C54.772 116.832 53.7734 112.965 53.0894 109.036C51.6525 100.815 52.8761 99.7043 51.9668 96.6984C51.6976 95.9748 51.6976 95.1787 51.9668 94.4551C52.2266 94.014 52.5736 93.6303 52.9866 93.3276C53.3996 93.0248 53.87 92.8093 54.3691 92.6941Z" stroke="white" stroke-width="6" stroke-miterlimit="10"/>
<path d="M158.79 92.8736C164.456 91.378 170.315 89.9424 176.37 88.5665C177.84 88.23 183.105 87.0298 193.691 84.8539C196.239 84.3267 198.911 83.8108 200.887 85.3137C202.627 86.6485 202.907 88.8581 203.39 92.7053C203.39 92.7053 204.097 98.5041 202.177 102.8C201.246 104.897 200.898 104.606 197.328 109.53C192.961 115.553 191.794 116.607 189.212 117.942C187.328 119.013 185.205 119.591 183.038 119.625C177.851 119.703 169.634 120.096 158.79 120.634C160.909 113.952 161.485 106.876 160.474 99.9399C160.102 97.5434 159.539 95.1805 158.79 92.8736Z" stroke="white" stroke-width="6" stroke-miterlimit="10"/>
<path d="M104.346 145.938V166.127C104.398 166.874 104.398 167.624 104.346 168.371C103.223 170.109 50.7657 148.776 20.9166 107.511C16.3622 101.383 12.6228 94.6911 9.79195 87.6019C4.90947 75.1275 3.07386 61.6697 4.43732 48.3448C4.72305 44.745 5.41597 41.1892 6.50284 37.7453C10.5553 25.2167 19.3562 18.1055 22.0841 15.6155C25.014 12.946 36.4641 4.91512 54.7844 4.06268C84.5325 2.68307 104.402 24.4652 104.402 31.1053C104.402 31.1053 104.402 44.2845 104.402 76.509" stroke="white" stroke-width="8" stroke-miterlimit="10"/>
<path d="M109.532 75.8584L109.397 31.5763C111.551 24.4259 115.999 18.1824 122.057 13.8093C128.115 9.43627 135.444 7.17681 142.915 7.37969C150.385 7.58256 157.581 10.2365 163.392 14.9319C169.203 19.6272 173.306 26.103 175.068 33.3597C176.336 33.5504 188.235 35.603 194.151 46.6399C200.808 59.1349 193.534 71.3158 193.163 71.9103C194.084 72.7627 204.703 82.992 202.144 98.0219C199.528 113.601 185.216 119.905 184.25 120.32C184.455 124.488 183.704 128.647 182.054 132.481C180.405 136.314 177.9 139.72 174.731 142.439C169.421 146.925 160.014 147.632 153.784 143.179C153.784 143.28 153.784 143.403 153.784 143.571C152.762 153.251 149.821 158.96 141.918 165.163C133.207 171.994 117.031 170.636 109.813 166.935V148.26" stroke="white" stroke-width="8" stroke-miterlimit="10" stroke-linecap="round"/>
<path d="M172.519 26.428C172.549 31.9587 172.109 37.4819 171.206 42.9385C169.904 50.7338 167.299 58.5179 160.777 60.077C156.871 60.077 154.525 58.6301 151.651 55.3998C148.092 51.418 147.452 45.6304 146.442 42.9385" stroke="white" stroke-width="8" stroke-miterlimit="10" stroke-linecap="round"/>
<path d="M106.288 76.9015C99.9004 78.2811 94.8264 79.728 91.571 80.7263C80.4463 84.0912 75.855 86.6822 65.0223 89.8676C59.039 91.6398 54.1446 92.7053 51.2259 93.2998C50.8891 98.5042 50.7208 112.368 59.8248 124.571C65.2917 131.884 71.7801 135.473 76.4163 138.031C85.6715 142.953 95.9517 145.642 106.434 145.882C116.407 146.487 126.371 144.558 135.396 140.274C139.808 138.12 147.026 134.587 152.818 126.814C162.686 113.59 161.17 97.7975 160.586 93.2998C156.904 92.5483 152.201 91.4603 146.779 89.8676C136.182 86.7495 131.534 84.2594 120.241 80.7263C116.514 79.571 111.822 78.2363 106.288 76.9015Z" stroke="white" stroke-width="8" stroke-miterlimit="10"/>
<path d="M140.829 109.429C118.777 115.411 95.5274 115.411 73.4752 109.429" stroke="white" stroke-width="6" stroke-miterlimit="10" stroke-linecap="round"/>
<path d="M134.666 124.907C116.436 130.889 96.7686 130.889 78.538 124.907" stroke="white" stroke-width="6" stroke-miterlimit="10" stroke-linecap="round"/>
<path d="M107.826 31.9801C116.604 34.6608 119.624 38.351 120.679 41.3682C122.307 46.0005 119.826 50.5431 122.924 54.4689C124.363 56.1891 126.341 57.3745 128.537 57.8338" stroke="white" stroke-width="7" stroke-miterlimit="10"/>
<path d="M199.281 100.232C196.435 99.6216 193.47 99.8955 190.783 101.017C188.605 101.943 186.697 103.405 185.238 105.268" stroke="white" stroke-width="6" stroke-miterlimit="10" stroke-linecap="round"/>
<path d="M111.867 163.828C112.544 162.014 113.612 160.37 114.995 159.013C116.378 157.657 118.043 156.62 119.871 155.977C124.776 154.317 129.772 155.82 131.849 156.56" stroke="white" stroke-width="6" stroke-miterlimit="10" stroke-linecap="round"/>
<path d="M195.7 63.756C190.525 73.1216 186.114 75.2976 182.925 75.3873C179.412 75.4995 176.19 73.1441 170.577 74.0974C168.819 74.4029 167.116 74.97 165.526 75.7799" stroke="white" stroke-width="6" stroke-miterlimit="10"/>
<path d="M134.24 52.7864C131.857 53.7742 129.723 55.2789 127.993 57.1915C126.263 59.1042 124.981 61.377 124.238 63.8457" stroke="white" stroke-width="5" stroke-miterlimit="10" stroke-linecap="round"/>
<path d="M163.224 70.3849C164.476 72.0293 165.363 73.9207 165.827 75.9337C166.292 77.9466 166.323 80.0352 165.919 82.0611" stroke="white" stroke-width="5" stroke-miterlimit="10" stroke-linecap="round"/>
<path d="M20.2347 49.552C20.5942 47.5145 19.975 45.7022 18.8516 45.5043C17.7282 45.3064 16.526 46.7977 16.1664 48.8353C15.8068 50.8729 16.426 52.6851 17.5495 52.883C18.6729 53.0809 19.8751 51.5896 20.2347 49.552Z" fill="white" stroke="white" stroke-width="3" stroke-miterlimit="10"/>
<path d="M20.7932 39.0352C24.1677 33.2198 28.7868 28.2215 34.3201 24.3979C41.2571 19.643 49.3614 16.8702 57.7593 16.3782" stroke="white" stroke-width="5" stroke-miterlimit="10" stroke-linecap="round"/>
</svg>
