<svg width="20" height="25" viewBox="0 0 20 25" fill="none" xmlns="http://www.w3.org/2000/svg">
<path d="M16.3636 0H3.63636C2.67226 0.00103396 1.74795 0.37764 1.06623 1.04719C0.384507 1.71674 0.00105276 2.62454 0 3.57143V21.4286C0.00105276 22.3755 0.384507 23.2833 1.06623 23.9528C1.74795 24.6224 2.67226 24.999 3.63636 25H16.3636C17.3277 24.999 18.2521 24.6224 18.9338 23.9528C19.6155 23.2833 19.9989 22.3755 20 21.4286V3.57143C19.9989 2.62454 19.6155 1.71674 18.9338 1.04719C18.2521 0.37764 17.3277 0.00103396 16.3636 0ZM10 15.1786H5.45455C5.21344 15.1786 4.98221 15.0845 4.81172 14.9171C4.64123 14.7496 4.54545 14.5225 4.54545 14.2857C4.54545 14.0489 4.64123 13.8218 4.81172 13.6544C4.98221 13.4869 5.21344 13.3929 5.45455 13.3929H10C10.2411 13.3929 10.4723 13.4869 10.6428 13.6544C10.8133 13.8218 10.9091 14.0489 10.9091 14.2857C10.9091 14.5225 10.8133 14.7496 10.6428 14.9171C10.4723 15.0845 10.2411 15.1786 10 15.1786ZM14.5455 10.7143H5.45455C5.21344 10.7143 4.98221 10.6202 4.81172 10.4528C4.64123 10.2853 4.54545 10.0582 4.54545 9.82143C4.54545 9.58463 4.64123 9.35753 4.81172 9.19008C4.98221 9.02264 5.21344 8.92857 5.45455 8.92857H14.5455C14.7866 8.92857 15.0178 9.02264 15.1883 9.19008C15.3588 9.35753 15.4545 9.58463 15.4545 9.82143C15.4545 10.0582 15.3588 10.2853 15.1883 10.4528C15.0178 10.6202 14.7866 10.7143 14.5455 10.7143ZM14.5455 6.25H5.45455C5.21344 6.25 4.98221 6.15593 4.81172 5.98849C4.64123 5.82104 4.54545 5.59394 4.54545 5.35714C4.54545 5.12034 4.64123 4.89324 4.81172 4.7258C4.98221 4.55835 5.21344 4.46429 5.45455 4.46429H14.5455C14.7866 4.46429 15.0178 4.55835 15.1883 4.7258C15.3588 4.89324 15.4545 5.12034 15.4545 5.35714C15.4545 5.59394 15.3588 5.82104 15.1883 5.98849C15.0178 6.15593 14.7866 6.25 14.5455 6.25Z" fill="#FFFFE3"/>
</svg>
