<svg width="49" height="50" viewBox="0 0 49 50" fill="none" xmlns="http://www.w3.org/2000/svg">
<g filter="url(#filter0_d_6_638)">
<path fill-rule="evenodd" clip-rule="evenodd" d="M44.8288 23.0616C44.8288 34.2556 35.7492 43.3301 24.5488 43.3301C13.3485 43.3301 4.26883 34.2556 4.26883 23.0616C4.26883 11.8676 13.3485 2.79312 24.5488 2.79312C35.7492 2.79312 44.8288 11.8676 44.8288 23.0616ZM29.6188 15.4609C29.6188 18.2594 27.3489 20.528 24.5488 20.528C21.7487 20.528 19.4788 18.2594 19.4788 15.4609C19.4788 12.6624 21.7487 10.3938 24.5488 10.3938C27.3489 10.3938 29.6188 12.6624 29.6188 15.4609ZM24.5487 25.5952C19.4342 25.5952 15.0272 28.6226 13.024 32.9823C15.8133 36.2159 19.9418 38.263 24.5488 38.263C29.1556 38.263 33.2841 36.216 36.0734 32.9825C34.0702 28.6227 29.6632 25.5952 24.5487 25.5952Z" fill="#20997B"/>
</g>
<defs>
<filter id="filter0_d_6_638" x="0.268829" y="0.793121" width="48.56" height="48.537" filterUnits="userSpaceOnUse" color-interpolation-filters="sRGB">
<feFlood flood-opacity="0" result="BackgroundImageFix"/>
<feColorMatrix in="SourceAlpha" type="matrix" values="0 0 0 0 0 0 0 0 0 0 0 0 0 0 0 0 0 0 127 0" result="hardAlpha"/>
<feOffset dy="2"/>
<feGaussianBlur stdDeviation="2"/>
<feComposite in2="hardAlpha" operator="out"/>
<feColorMatrix type="matrix" values="0 0 0 0 0 0 0 0 0 0 0 0 0 0 0 0 0 0 0.15 0"/>
<feBlend mode="normal" in2="BackgroundImageFix" result="effect1_dropShadow_6_638"/>
<feBlend mode="normal" in="SourceGraphic" in2="effect1_dropShadow_6_638" result="shape"/>
</filter>
</defs>
</svg>
