<svg width="19" height="21" viewBox="0 0 19 21" fill="none" xmlns="http://www.w3.org/2000/svg">
<path d="M9.5 0.5C7.45398 0.5 5.49176 1.29018 4.04501 2.6967C2.59826 4.10322 1.78548 6.01088 1.78548 8V12.4825L0.876452 13.3663C0.696691 13.5411 0.574279 13.7638 0.524691 14.0062C0.475103 14.2487 0.500564 14.4999 0.597857 14.7283C0.69515 14.9567 0.859906 15.1519 1.0713 15.2893C1.28269 15.4266 1.53122 15.4999 1.78548 15.5H17.2145C17.4688 15.4999 17.7173 15.4266 17.9287 15.2893C18.1401 15.1519 18.3048 14.9567 18.4021 14.7283C18.4994 14.4999 18.5249 14.2487 18.4753 14.0062C18.4257 13.7638 18.3033 13.5411 18.1236 13.3663L17.2145 12.4825V8C17.2145 6.01088 16.4017 4.10322 14.955 2.6967C13.5082 1.29018 11.546 0.5 9.5 0.5ZM9.5 20.5C8.47699 20.5 7.49588 20.1049 6.77251 19.4017C6.04913 18.6984 5.64274 17.7446 5.64274 16.75H13.3573C13.3573 17.7446 12.9509 18.6984 12.2275 19.4017C11.5041 20.1049 10.523 20.5 9.5 20.5Z" fill="#FFFFE3"/>
</svg>
