<svg width="20" height="21" viewBox="0 0 20 21" fill="none" xmlns="http://www.w3.org/2000/svg">
<path d="M0 11.9286C0 11.5497 0.131696 11.1863 0.366116 10.9184C0.600537 10.6505 0.918479 10.5 1.25 10.5H3.75C4.08152 10.5 4.39946 10.6505 4.63388 10.9184C4.8683 11.1863 5 11.5497 5 11.9286V19.0714C5 19.4503 4.8683 19.8137 4.63388 20.0816C4.39946 20.3495 4.08152 20.5 3.75 20.5H1.25C0.918479 20.5 0.600537 20.3495 0.366116 20.0816C0.131696 19.8137 0 19.4503 0 19.0714V11.9286ZM7.5 6.21429C7.5 5.83541 7.6317 5.47204 7.86612 5.20413C8.10054 4.93622 8.41848 4.78571 8.75 4.78571H11.25C11.5815 4.78571 11.8995 4.93622 12.1339 5.20413C12.3683 5.47204 12.5 5.83541 12.5 6.21429V19.0714C12.5 19.4503 12.3683 19.8137 12.1339 20.0816C11.8995 20.3495 11.5815 20.5 11.25 20.5H8.75C8.41848 20.5 8.10054 20.3495 7.86612 20.0816C7.6317 19.8137 7.5 19.4503 7.5 19.0714V6.21429ZM15 1.92857C15 1.54969 15.1317 1.18633 15.3661 0.918419C15.6005 0.65051 15.9185 0.5 16.25 0.5H18.75C19.0815 0.5 19.3995 0.65051 19.6339 0.918419C19.8683 1.18633 20 1.54969 20 1.92857V19.0714C20 19.4503 19.8683 19.8137 19.6339 20.0816C19.3995 20.3495 19.0815 20.5 18.75 20.5H16.25C15.9185 20.5 15.6005 20.3495 15.3661 20.0816C15.1317 19.8137 15 19.4503 15 19.0714V1.92857Z" fill="#1F4650"/>
</svg>
