<svg width="46" height="47" viewBox="0 0 46 47" fill="none" xmlns="http://www.w3.org/2000/svg">
<g filter="url(#filter0_d_15_582)">
<path fill-rule="evenodd" clip-rule="evenodd" d="M35.1608 4.42101L35.1823 4.44252L40.0006 9.25794L40.0221 9.27946C40.3999 9.65704 40.7153 9.9722 40.9519 10.2507C41.1986 10.5412 41.4034 10.8408 41.5204 11.2006C41.6999 11.7528 41.6999 12.3476 41.5204 12.8997C41.4034 13.2596 41.1986 13.5592 40.9519 13.8496C40.7154 14.1281 40.4001 14.4432 40.0224 14.8206L40.0223 14.8207L40.0221 14.8209L40.0006 14.8424L35.1823 19.6578L35.1607 19.6794C34.7829 20.057 34.4676 20.3721 34.1889 20.6086C33.8983 20.8552 33.5985 21.0598 33.2384 21.1768C32.6859 21.3562 32.0908 21.3562 31.5383 21.1768C31.1782 21.0598 30.8785 20.8552 30.5878 20.6086C30.3092 20.3721 29.9938 20.057 29.616 19.6794L29.5945 19.6578L24.7762 14.8424L24.7546 14.8209L24.7546 14.8209C24.3768 14.4433 24.0614 14.1281 23.8249 13.8496C23.5781 13.5592 23.3733 13.2596 23.2563 12.8997C23.0768 12.3476 23.0768 11.7528 23.2563 11.2006C23.3733 10.8408 23.5781 10.5412 23.8249 10.2507C24.0615 9.9722 24.3768 9.65704 24.7546 9.27946L24.7762 9.25794L29.5945 4.44252L29.616 4.42101L29.616 4.42099C29.9938 4.0434 30.3092 3.72823 30.5878 3.4918C30.8785 3.2452 31.1782 3.04052 31.5383 2.92359C32.0908 2.74418 32.6859 2.74418 33.2384 2.92359C33.5985 3.04052 33.8983 3.2452 34.1889 3.4918C34.4676 3.72824 34.7829 4.04341 35.1608 4.42101ZM8.1819 4.69602L8.21233 4.69602H15.0283L15.0588 4.69602C15.5929 4.69601 16.0388 4.696 16.403 4.72576C16.7829 4.75679 17.1396 4.82391 17.4768 4.99575C17.9943 5.2594 18.415 5.6801 18.6786 6.19754C18.8505 6.53481 18.9176 6.89146 18.9486 7.27135C18.9784 7.63557 18.9784 8.0814 18.9783 8.61552V8.61557V8.64602V15.4541V15.4846V15.4846C18.9784 16.0188 18.9784 16.4646 18.9486 16.8288C18.9176 17.2087 18.8505 17.5654 18.6786 17.9026C18.415 18.4201 17.9943 18.8408 17.4768 19.1044C17.1396 19.2763 16.7829 19.3434 16.403 19.3744C16.0388 19.4042 15.593 19.4042 15.0589 19.4041H15.0588H15.0283H8.21233H8.18188H8.1818C7.64769 19.4042 7.20187 19.4042 6.83766 19.3744C6.45778 19.3434 6.10112 19.2763 5.76386 19.1044C5.24641 18.8408 4.82571 18.4201 4.56206 17.9026C4.39022 17.5654 4.32311 17.2087 4.29207 16.8288C4.26231 16.4646 4.26232 16.0187 4.26233 15.4846V15.4846V15.4541V8.64602V8.61558V8.61555C4.26232 8.08141 4.26231 7.63557 4.29207 7.27135C4.32311 6.89146 4.39022 6.53481 4.56206 6.19754C4.82571 5.6801 5.24641 5.2594 5.76386 4.99575C6.10112 4.82391 6.45778 4.75679 6.83766 4.72576C7.20189 4.696 7.64774 4.69601 8.1819 4.69602ZM8.21233 25.4517H8.1819C7.64774 25.4516 7.20189 25.4516 6.83766 25.4814C6.45778 25.5124 6.10112 25.5795 5.76386 25.7514C5.24641 26.015 4.82571 26.4357 4.56206 26.9532C4.39022 27.2904 4.32311 27.6471 4.29207 28.027C4.26231 28.3912 4.26232 28.8371 4.26233 29.3712V29.3712V29.4017V36.2098V36.2402V36.2403C4.26232 36.7744 4.26231 37.2202 4.29207 37.5845C4.32311 37.9643 4.39022 38.321 4.56206 38.6583C4.82571 39.1757 5.24641 39.5964 5.76386 39.8601C6.10112 40.0319 6.45778 40.099 6.83766 40.13C7.20189 40.1598 7.64773 40.1598 8.18188 40.1598H8.21233H15.0283H15.0588C15.5929 40.1598 16.0388 40.1598 16.403 40.13C16.7829 40.099 17.1396 40.0319 17.4768 39.8601C17.9943 39.5964 18.415 39.1757 18.6786 38.6583C18.8505 38.321 18.9176 37.9643 18.9486 37.5845C18.9784 37.2202 18.9784 36.7744 18.9783 36.2403V36.2402V36.2098V29.4017V29.3712V29.3712C18.9784 28.837 18.9784 28.3912 18.9486 28.027C18.9176 27.6471 18.8505 27.2904 18.6786 26.9532C18.415 26.4357 17.9943 26.015 17.4768 25.7514C17.1396 25.5795 16.7829 25.5124 16.403 25.4814C16.0388 25.4516 15.5929 25.4516 15.0588 25.4517H15.0283H8.21233ZM28.9499 25.4517H28.9804H35.7964H35.8268C36.361 25.4516 36.8068 25.4516 37.171 25.4814C37.5509 25.5124 37.9076 25.5795 38.2448 25.7514C38.7623 26.015 39.183 26.4357 39.4466 26.9532C39.6185 27.2904 39.6856 27.6471 39.7166 28.027C39.7464 28.3912 39.7464 28.8371 39.7464 29.3712V29.4017V36.2098V36.2402C39.7464 36.7744 39.7464 37.2202 39.7166 37.5845C39.6856 37.9643 39.6185 38.321 39.4466 38.6583C39.183 39.1757 38.7623 39.5964 38.2448 39.8601C37.9076 40.0319 37.5509 40.099 37.171 40.13C36.8068 40.1598 36.361 40.1598 35.8268 40.1598H35.7964H28.9804H28.9499C28.4158 40.1598 27.9699 40.1598 27.6057 40.13C27.2258 40.099 26.8691 40.0319 26.5319 39.8601C26.0144 39.5964 25.5937 39.1757 25.3301 38.6583C25.1582 38.321 25.0911 37.9643 25.0601 37.5845C25.0303 37.2202 25.0303 36.7744 25.0304 36.2402V36.2098V29.4017V29.3712C25.0303 28.8371 25.0303 28.3912 25.0601 28.027C25.0911 27.6471 25.1582 27.2904 25.3301 26.9532C25.5937 26.4357 26.0144 26.015 26.5319 25.7514C26.8691 25.5795 27.2258 25.5124 27.6057 25.4814C27.9699 25.4516 28.4158 25.4516 28.9499 25.4517Z" fill="#20997B"/>
</g>
<defs>
<filter id="filter0_d_15_582" x="0.262329" y="0.789032" width="45.3927" height="45.3708" filterUnits="userSpaceOnUse" color-interpolation-filters="sRGB">
<feFlood flood-opacity="0" result="BackgroundImageFix"/>
<feColorMatrix in="SourceAlpha" type="matrix" values="0 0 0 0 0 0 0 0 0 0 0 0 0 0 0 0 0 0 127 0" result="hardAlpha"/>
<feOffset dy="2"/>
<feGaussianBlur stdDeviation="2"/>
<feComposite in2="hardAlpha" operator="out"/>
<feColorMatrix type="matrix" values="0 0 0 0 0 0 0 0 0 0 0 0 0 0 0 0 0 0 0.15 0"/>
<feBlend mode="normal" in2="BackgroundImageFix" result="effect1_dropShadow_15_582"/>
<feBlend mode="normal" in="SourceGraphic" in2="effect1_dropShadow_15_582" result="shape"/>
</filter>
</defs>
</svg>
